<svg width="6455" height="2332" viewBox="0 0 6455 2332" fill="none" xmlns="http://www.w3.org/2000/svg">
<g clip-path="url(#clip0_13_96)">
<mask id="mask0_13_96" style="mask-type:alpha" maskUnits="userSpaceOnUse" x="37" y="0" width="2193" height="2332">
<path d="M1419.18 2253.32C1598.12 2168.22 1769.99 2068.99 1933.16 1956.56L1985.28 1920.3C2050.06 1875.65 2104.07 1817.14 2143.4 1749.01C2182.73 1680.88 2206.39 1604.83 2212.66 1526.42L2217.79 1462.75C2233.64 1265.23 2233.64 1066.76 2217.79 869.246L2212.66 805.581C2206.39 727.161 2182.73 651.123 2143.4 582.99C2104.07 514.858 2050.06 456.343 1985.28 411.698L1932.69 375.435C1769.53 263.009 1597.66 163.777 1418.71 78.682L1361.11 51.2804C1290.06 17.5175 1212.39 0 1133.73 0C1055.07 0 977.406 17.5175 906.36 51.2804L848.758 78.682C669.809 163.777 497.937 263.009 334.775 375.435L282.188 411.698C217.415 456.343 163.393 514.858 124.063 582.99C84.7333 651.123 61.0746 727.161 54.8131 805.581L49.6825 869.246C33.8246 1066.76 33.8246 1265.23 49.6825 1462.75L54.8131 1526.42C61.1562 1604.89 84.9198 1680.97 124.378 1749.1C163.836 1817.25 217.986 1875.72 282.887 1920.3L335.475 1956.56C498.637 2068.99 670.508 2168.22 849.458 2253.32L907.06 2280.72C978.105 2314.47 1055.77 2332 1134.43 2332C1213.09 2332 1290.76 2314.47 1361.81 2280.72L1419.18 2253.32Z" fill="white"/>
</mask>
<g mask="url(#mask0_13_96)">
<rect x="2298" width="2332" height="2332" transform="rotate(90 2298 0)" fill="#5D32F5"/>
</g>
<rect width="1541" height="1541" transform="translate(363 395)" fill="#5D32F5"/>
<path d="M1169.62 1085.94H1635.95L945.87 1700.43L1148.25 1307.71L1186.2 1234.07H1103.36H613.391L1307.99 637.989L1124.26 1013.23L1088.67 1085.94H1169.62Z" fill="#5D32F5" stroke="white" stroke-width="101"/>
<path d="M3363.82 1734.37C3296.96 1734.37 3239.02 1723.23 3189.99 1700.94C3140.96 1678.66 3103.07 1647.01 3076.33 1606.01C3050.48 1564.11 3037.11 1515.08 3036.22 1458.92H3203.36C3203.36 1499.03 3217.62 1530.68 3246.15 1553.86C3275.57 1576.14 3315.23 1587.29 3365.15 1587.29C3413.29 1587.29 3450.73 1576.14 3477.47 1553.86C3505.11 1531.57 3518.93 1500.82 3518.93 1461.59C3518.93 1428.61 3509.12 1400.09 3489.51 1376.02C3470.79 1351.06 3443.6 1334.12 3407.94 1325.21L3295.62 1294.45C3218.96 1274.84 3159.68 1239.63 3117.78 1188.82C3076.78 1138.01 3056.27 1076.5 3056.27 1004.29C3056.27 949.023 3068.75 900.886 3093.71 859.88C3118.67 818.874 3153.89 787.229 3199.35 764.943C3245.7 742.657 3300.08 731.514 3362.48 731.514C3456.97 731.514 3531.85 756.029 3587.12 805.057C3642.39 853.194 3670.47 918.269 3671.36 1000.28H3504.22C3504.22 961.949 3491.74 932.086 3466.78 910.691C3441.82 888.406 3406.61 877.263 3361.14 877.263C3317.46 877.263 3283.59 887.514 3259.52 908.017C3235.45 928.52 3223.42 957.491 3223.42 994.931C3223.42 1028.81 3232.33 1057.78 3250.16 1081.85C3268.88 1105.02 3295.62 1121.51 3330.39 1131.32L3446.72 1163.41C3524.27 1183.02 3583.55 1218.23 3624.56 1269.05C3665.57 1318.97 3686.07 1380.92 3686.07 1454.91C3686.07 1510.18 3672.7 1559.21 3645.95 1601.99C3619.21 1643.89 3581.77 1676.43 3533.63 1699.61C3485.5 1722.78 3428.89 1734.37 3363.82 1734.37ZM3735.02 1721V1573.91H3931.58V891.971H3735.02V744.886H4296.62V891.971H4100.06V1573.91H4296.62V1721H3735.02ZM4344.24 1721V744.886H4542.13L4637.07 1055.1C4646.88 1086.3 4654.9 1114.83 4661.14 1140.68C4667.38 1166.53 4671.39 1185.25 4673.17 1196.84C4674.96 1185.25 4678.97 1166.53 4685.21 1140.68C4691.45 1114.83 4699.02 1086.3 4707.94 1055.1L4798.86 744.886H4996.76V1721H4840.32V1417.47C4840.32 1372.9 4841.65 1324.31 4844.33 1271.72C4847 1219.13 4850.12 1166.53 4853.69 1113.94C4857.25 1061.34 4861.26 1011.42 4865.72 964.177C4871.07 916.931 4875.53 875.48 4879.09 839.823L4748.05 1301.14H4595.62L4460.57 839.823C4465.02 873.697 4469.48 913.811 4473.94 960.166C4478.4 1005.63 4482.41 1054.66 4485.97 1107.25C4490.43 1158.95 4494 1211.55 4496.67 1265.03C4499.34 1318.52 4500.68 1369.33 4500.68 1417.47V1721H4344.24ZM5327.85 1734.37C5260.99 1734.37 5203.05 1723.23 5154.02 1700.94C5104.99 1678.66 5067.11 1647.01 5040.36 1606.01C5014.51 1564.11 5001.14 1515.08 5000.25 1458.92H5167.39C5167.39 1499.03 5181.66 1530.68 5210.18 1553.86C5239.6 1576.14 5279.27 1587.29 5329.19 1587.29C5377.32 1587.29 5414.76 1576.14 5441.51 1553.86C5469.14 1531.57 5482.96 1500.82 5482.96 1461.59C5482.96 1428.61 5473.15 1400.09 5453.54 1376.02C5434.82 1351.06 5407.63 1334.12 5371.98 1325.21L5259.66 1294.45C5182.99 1274.84 5123.71 1239.63 5081.82 1188.82C5040.81 1138.01 5020.31 1076.5 5020.31 1004.29C5020.31 949.023 5032.79 900.886 5057.75 859.88C5082.71 818.874 5117.92 787.229 5163.38 764.943C5209.74 742.657 5264.11 731.514 5326.51 731.514C5421 731.514 5495.88 756.029 5551.15 805.057C5606.42 853.194 5634.5 918.269 5635.39 1000.28H5468.25C5468.25 961.949 5455.77 932.086 5430.81 910.691C5405.85 888.406 5370.64 877.263 5325.18 877.263C5281.5 877.263 5247.62 887.514 5223.55 908.017C5199.48 928.52 5187.45 957.491 5187.45 994.931C5187.45 1028.81 5196.36 1057.78 5214.19 1081.85C5232.91 1105.02 5259.66 1121.51 5294.42 1131.32L5410.75 1163.41C5488.31 1183.02 5547.59 1218.23 5588.59 1269.05C5629.6 1318.97 5650.1 1380.92 5650.1 1454.91C5650.1 1510.18 5636.73 1559.21 5609.99 1601.99C5583.24 1643.89 5545.8 1676.43 5497.67 1699.61C5449.53 1722.78 5392.92 1734.37 5327.85 1734.37Z" fill="#5D32F5"/>
<path d="M5873.09 1721L5752.07 1353.29H5837.65L5907.85 1576.59C5911.86 1589.96 5915.65 1603.78 5919.22 1618.04C5923.23 1632.3 5926.13 1643.67 5927.91 1652.14C5930.14 1643.67 5933.03 1632.3 5936.6 1618.04C5940.17 1603.78 5943.73 1590.18 5947.3 1577.26L6016.16 1353.29H6101.07L5980.73 1721H5873.09ZM6109.5 1721V1647.46H6236.53V1307.16L6108.83 1402.09V1313.84L6221.15 1232.94H6320.1V1647.46H6422.39V1721H6109.5Z" fill="#5D32F5"/>
</g>
<defs>
<clipPath id="clip0_13_96">
<rect width="6455" height="2332" fill="white"/>
</clipPath>
</defs>
</svg>
