<svg width="2298" height="2332" viewBox="0 0 2298 2332" fill="none" xmlns="http://www.w3.org/2000/svg">
<mask id="mask0_13_74" style="mask-type:alpha" maskUnits="userSpaceOnUse" x="37" y="0" width="2193" height="2332">
<path d="M1419.18 2253.32C1598.12 2168.22 1769.99 2068.99 1933.16 1956.56L1985.28 1920.3C2050.06 1875.65 2104.07 1817.14 2143.4 1749.01C2182.73 1680.88 2206.39 1604.83 2212.66 1526.42L2217.79 1462.75C2233.64 1265.23 2233.64 1066.76 2217.79 869.246L2212.66 805.581C2206.39 727.161 2182.73 651.123 2143.4 582.99C2104.07 514.858 2050.06 456.343 1985.28 411.698L1932.69 375.435C1769.53 263.009 1597.66 163.777 1418.71 78.682L1361.11 51.2804C1290.06 17.5175 1212.39 0 1133.73 0C1055.07 0 977.406 17.5175 906.36 51.2804L848.758 78.682C669.809 163.777 497.937 263.009 334.775 375.435L282.188 411.698C217.415 456.343 163.393 514.858 124.063 582.99C84.7333 651.123 61.0746 727.161 54.8131 805.581L49.6825 869.246C33.8246 1066.76 33.8246 1265.23 49.6825 1462.75L54.8131 1526.42C61.1562 1604.89 84.9198 1680.97 124.378 1749.1C163.836 1817.25 217.986 1875.72 282.887 1920.3L335.475 1956.56C498.637 2068.99 670.508 2168.22 849.458 2253.32L907.06 2280.72C978.105 2314.47 1055.77 2332 1134.43 2332C1213.09 2332 1290.76 2314.47 1361.81 2280.72L1419.18 2253.32Z" fill="white"/>
</mask>
<g mask="url(#mask0_13_74)">
<rect x="2298" width="2332" height="2332" transform="rotate(90 2298 0)" fill="#5D32F5"/>
</g>
<rect width="1541" height="1541" transform="translate(363 395)" fill="#5D32F5"/>
<path d="M1169.62 1085.94H1635.95L945.87 1700.43L1148.25 1307.71L1186.2 1234.07H1103.36H613.391L1307.99 637.989L1124.26 1013.23L1088.67 1085.94H1169.62Z" fill="#5D32F5" stroke="white" stroke-width="101"/>
</svg>
