<svg width="3495" height="1765" viewBox="0 0 3495 1765" fill="none" xmlns="http://www.w3.org/2000/svg">
<path d="M403.817 1377.37C336.96 1377.37 279.017 1366.23 229.989 1343.94C180.96 1321.66 143.074 1290.01 116.331 1249.01C90.48 1207.11 77.1086 1158.08 76.2171 1101.92H243.36C243.36 1142.03 257.623 1173.68 286.149 1196.86C315.566 1219.14 355.234 1230.29 405.154 1230.29C453.291 1230.29 490.731 1219.14 517.474 1196.86C545.109 1174.57 558.926 1143.82 558.926 1104.59C558.926 1071.61 549.12 1043.09 529.509 1019.02C510.789 994.057 483.6 977.12 447.943 968.206L335.623 937.451C258.96 917.84 199.68 882.629 157.783 831.817C116.777 781.006 96.2743 719.497 96.2743 647.291C96.2743 592.023 108.754 543.886 133.714 502.88C158.674 461.874 193.886 430.229 239.349 407.943C285.703 385.657 340.08 374.514 402.48 374.514C496.971 374.514 571.851 399.029 627.12 448.057C682.389 496.194 710.469 561.269 711.36 643.28H544.217C544.217 604.949 531.737 575.086 506.777 553.691C481.817 531.406 446.606 520.263 401.143 520.263C357.463 520.263 323.589 530.514 299.52 551.017C275.451 571.52 263.417 600.491 263.417 637.931C263.417 671.806 272.331 700.777 290.16 724.846C308.88 748.023 335.623 764.514 370.389 774.32L486.72 806.411C564.274 826.023 623.554 861.234 664.56 912.046C705.566 961.966 726.069 1023.92 726.069 1097.91C726.069 1153.18 712.697 1202.21 685.954 1244.99C659.211 1286.89 621.771 1319.43 573.634 1342.61C525.497 1365.78 468.891 1377.37 403.817 1377.37ZM775.021 1364V1216.91H971.581V534.971H775.021V387.886H1336.62V534.971H1140.06V1216.91H1336.62V1364H775.021ZM1384.24 1364V387.886H1582.13L1677.07 698.103C1686.88 729.303 1694.9 757.829 1701.14 783.68C1707.38 809.531 1711.39 828.251 1713.17 839.84C1714.96 828.251 1718.97 809.531 1725.21 783.68C1731.45 757.829 1739.02 729.303 1747.94 698.103L1838.86 387.886H2036.76V1364H1880.32V1060.47C1880.32 1015.9 1881.65 967.314 1884.33 914.72C1887 862.126 1890.12 809.531 1893.69 756.937C1897.25 704.343 1901.26 654.423 1905.72 607.177C1911.07 559.931 1915.53 518.48 1919.09 482.823L1788.05 944.137H1635.62L1500.57 482.823C1505.02 516.697 1509.48 556.811 1513.94 603.166C1518.4 648.629 1522.41 697.657 1525.97 750.251C1530.43 801.954 1534 854.549 1536.67 908.034C1539.34 961.52 1540.68 1012.33 1540.68 1060.47V1364H1384.24ZM2367.85 1377.37C2300.99 1377.37 2243.05 1366.23 2194.02 1343.94C2144.99 1321.66 2107.11 1290.01 2080.36 1249.01C2054.51 1207.11 2041.14 1158.08 2040.25 1101.92H2207.39C2207.39 1142.03 2221.66 1173.68 2250.18 1196.86C2279.6 1219.14 2319.27 1230.29 2369.19 1230.29C2417.32 1230.29 2454.76 1219.14 2481.51 1196.86C2509.14 1174.57 2522.96 1143.82 2522.96 1104.59C2522.96 1071.61 2513.15 1043.09 2493.54 1019.02C2474.82 994.057 2447.63 977.12 2411.98 968.206L2299.66 937.451C2222.99 917.84 2163.71 882.629 2121.82 831.817C2080.81 781.006 2060.31 719.497 2060.31 647.291C2060.31 592.023 2072.79 543.886 2097.75 502.88C2122.71 461.874 2157.92 430.229 2203.38 407.943C2249.74 385.657 2304.11 374.514 2366.51 374.514C2461 374.514 2535.88 399.029 2591.15 448.057C2646.42 496.194 2674.5 561.269 2675.39 643.28H2508.25C2508.25 604.949 2495.77 575.086 2470.81 553.691C2445.85 531.406 2410.64 520.263 2365.18 520.263C2321.5 520.263 2287.62 530.514 2263.55 551.017C2239.48 571.52 2227.45 600.491 2227.45 637.931C2227.45 671.806 2236.36 700.777 2254.19 724.846C2272.91 748.023 2299.66 764.514 2334.42 774.32L2450.75 806.411C2528.31 826.023 2587.59 861.234 2628.59 912.046C2669.6 961.966 2690.1 1023.92 2690.1 1097.91C2690.1 1153.18 2676.73 1202.21 2649.99 1244.99C2623.24 1286.89 2585.8 1319.43 2537.67 1342.61C2489.53 1365.78 2432.92 1377.37 2367.85 1377.37Z" fill="#5D32F5"/>
<path d="M2913.09 1364L2792.07 996.286H2877.65L2947.85 1219.59C2951.86 1232.96 2955.65 1246.78 2959.22 1261.04C2963.23 1275.3 2966.13 1286.67 2967.91 1295.14C2970.14 1286.67 2973.03 1275.3 2976.6 1261.04C2980.17 1246.78 2983.73 1233.18 2987.3 1220.26L3056.16 996.286H3141.07L3020.73 1364H2913.09ZM3149.5 1364V1290.46H3276.53V950.155L3148.83 1045.09V956.841L3261.15 875.944H3360.1V1290.46H3462.39V1364H3149.5Z" fill="#5D32F5"/>
</svg>
